<svg width="173" height="172" viewBox="0 0 173 172" fill="none" xmlns="http://www.w3.org/2000/svg">
<path d="M72.72 8.08C73.68 8.08 74.832 8.272 76.176 8.65599C77.616 9.03999 78.672 9.56799 79.344 10.24L96.192 27.088C96.864 27.76 97.392 28.816 97.776 30.256C98.16 31.6 98.352 32.752 98.352 33.712V80.512C98.352 81.28 98.112 82.384 97.632 83.824C97.152 85.168 96.672 86.08 96.192 86.56L79.344 103.408C78.672 104.08 77.616 104.608 76.176 104.992C74.832 105.376 73.68 105.568 72.72 105.568H12.816C11.76 105.568 10.56 105.376 9.216 104.992C7.968 104.512 6.768 103.888 5.616 103.12C4.464 102.256 3.456 101.296 2.592 100.24C1.824 99.184 1.44 98.032 1.44 96.784V16.864C1.44 16.096 1.728 15.232 2.304 14.272C2.88 13.312 3.6 12.448 4.464 11.68C5.328 10.816 6.192 10.096 7.056 9.52C8.016 8.94399 8.88 8.65599 9.648 8.65599L72.72 8.08ZM18.864 44.512L28.08 54.304C28.656 54.88 29.184 55.936 29.664 57.472C30.24 59.008 30.528 60.16 30.528 60.928V82.096C30.528 83.056 30.864 84.016 31.536 84.976C32.304 85.84 33.216 86.656 34.272 87.424C35.328 88.096 36.432 88.672 37.584 89.152C38.736 89.536 39.744 89.728 40.608 89.728H72.72C73.872 89.728 75.024 89.44 76.176 88.864C77.424 88.288 78.528 87.568 79.488 86.704C80.448 85.744 81.216 84.688 81.792 83.536C82.368 82.288 82.656 81.088 82.656 79.936V33.712C82.656 32.848 82.416 31.888 81.936 30.832C81.552 29.68 80.976 28.672 80.208 27.808C79.536 26.848 78.72 26.032 77.76 25.36C76.896 24.688 75.984 24.352 75.024 24.352H24.336C23.664 24.352 22.896 24.64 22.032 25.216C21.264 25.696 20.496 26.32 19.728 27.088C19.056 27.76 18.48 28.528 18 29.392C17.52 30.16 17.28 30.88 17.28 31.552V41.344L18.864 44.512Z" fill="#D2DF43"/>
<path d="M75.024 141.445C75.024 139.621 75.552 138.229 76.608 137.269C77.664 136.213 79.056 135.685 80.784 135.685C81.264 135.685 81.792 135.685 82.368 135.685C82.944 135.589 83.424 135.781 83.808 136.261C84.096 136.549 84.672 137.125 85.536 137.989C86.4 138.853 87.312 139.765 88.272 140.725C89.328 141.589 90.288 142.453 91.152 143.317C92.016 144.085 92.64 144.613 93.024 144.901C93.792 145.573 94.752 146.101 95.904 146.485C97.056 146.869 98.112 147.061 99.072 147.061H131.184C132.912 147.061 134.352 146.677 135.504 145.909C136.752 145.045 137.76 144.037 138.528 142.885C139.392 141.637 140.016 140.245 140.4 138.709C140.784 137.173 140.976 135.685 140.976 134.245C140.976 133.285 140.784 132.133 140.4 130.789C140.112 129.445 139.632 128.149 138.96 126.901C138.288 125.653 137.472 124.597 136.512 123.733C135.648 122.773 134.592 122.293 133.344 122.293H84.816C83.856 122.293 82.704 122.053 81.36 121.573C80.112 120.997 78.864 120.325 77.616 119.557C76.464 118.693 75.456 117.733 74.592 116.677C73.824 115.621 73.44 114.517 73.44 113.365V87.7333L75.024 84.4213L92.016 67.5733L95.184 65.9893C95.376 65.9893 96.624 65.9893 98.928 65.9893C101.232 65.8933 104.352 65.8453 108.288 65.8453C112.32 65.7493 116.496 65.7013 120.816 65.7013C125.232 65.6053 129.6 65.5573 133.92 65.5573C138.24 65.4613 141.84 65.4133 144.72 65.4133H145.152C146.016 65.4133 147.12 65.6533 148.464 66.1333C149.808 66.5173 150.768 66.9973 151.344 67.5733L167.616 83.9893C168.096 84.3733 168.288 84.8533 168.192 85.4293C168.192 85.9093 168.192 86.3893 168.192 86.8693C168.192 90.7093 166.272 92.6293 162.432 92.6293C161.952 92.6293 161.424 92.6773 160.848 92.7733C160.368 92.7733 159.936 92.5333 159.552 92.0533C159.168 91.7653 158.544 91.2373 157.68 90.4693C156.816 89.6053 155.856 88.6933 154.8 87.7333C153.84 86.7733 152.928 85.9093 152.064 85.1413C151.2 84.2773 150.576 83.7013 150.192 83.4133C149.904 83.1253 149.424 82.7893 148.752 82.4053C148.08 81.9253 147.504 81.6853 147.024 81.6853H96.336C95.664 81.6853 94.896 81.9733 94.032 82.5493C93.264 83.0293 92.496 83.6533 91.728 84.4213C91.056 85.0933 90.48 85.8613 90 86.7253C89.52 87.4933 89.28 88.2133 89.28 88.8853V98.6773C89.28 99.6373 89.616 100.597 90.288 101.557C91.056 102.517 91.92 103.381 92.88 104.149C93.936 104.821 94.992 105.397 96.048 105.877C97.2 106.357 98.208 106.597 99.072 106.597H148.032L151.344 108.469L168.192 125.317C169.344 126.469 169.968 127.957 170.064 129.781C170.256 131.509 170.352 133.093 170.352 134.533C170.352 136.069 170.256 137.749 170.064 139.573C169.968 141.301 169.344 142.741 168.192 143.893L151.344 160.741C150.672 161.413 149.616 161.941 148.176 162.325C146.832 162.709 145.68 162.901 144.72 162.901H98.496C97.632 162.901 96.48 162.709 95.04 162.325C93.696 161.941 92.688 161.413 92.016 160.741L75.6 144.325C75.216 143.941 75.024 143.509 75.024 143.029V141.445Z" fill="#D2DF43"/>
</svg>
